<svg xmlns="http://www.w3.org/2000/svg" viewBox="0 0 48 48" width="288px" height="288px">
    <path d="M 23.005859 2.0019531 C 19.914859 2.0019531 17.117781 3.1337813 15.050781 5.8007812 C 11.706781 10.093781 8.0058594 17.321953 8.0058594 22.001953 C 8.2608594 26.228953 10.817859 30.174953 13.005859 34.001953 L 14.001953 32.001953 C 15.109953 33.174953 15.540859 33.641953 17.005859 34.001953 C 17.002859 33.001953 17.001953 33.001953 17.001953 32.001953 C 17.536953 32.481953 18.297937 33.614609 18.960938 33.974609 C 18.868937 35.268609 18.623906 36.281953 18.003906 37.001953 C 16.746906 38.454953 14.059812 38.801953 11.007812 40.001953 C 8.2008125 41.108953 5.0058594 42.001953 5.0058594 46.001953 L 5.0058594 47.001953 C 3.8978594 47.001953 1.0058594 47.214141 1.0058594 47.494141 C 1.0058594 47.774141 3.8939531 48.001953 5.0019531 48.001953 L 5.0058594 48 L 5.0058594 48.001953 L 42.992188 48.001953 C 42.994167 48.001953 42.998009 48.001955 43 48.001953 C 44.112354 48.001144 46.988281 47.77364 46.988281 47.494141 C 46.988281 47.21489 44.114523 47.003089 43 47.001953 L 43 46.001953 C 43 42.001953 39.803094 41.108953 36.996094 40.001953 C 33.944094 38.801953 31.258953 38.454953 30.001953 37.001953 C 29.371953 36.267953 29.128109 35.240594 29.037109 33.933594 C 30.284109 33.533594 31.437859 32.428953 32.005859 32.001953 L 32.005859 34.001953 C 33.088859 33.174953 34.002859 32.001953 34.005859 30.001953 C 34.305859 30.001953 34.720859 30.401953 35.005859 31.001953 C 36.314859 28.868953 38.005859 27.708953 38.005859 21.001953 C 38.005859 19.041953 36.054859 14.268953 35.005859 11.001953 C 33.774859 7.1749531 32.746859 4.0019531 28.005859 4.0019531 C 26.809859 2.6549531 25.346859 2.0019531 23.005859 2.0019531 z M 21.871094 10.001953 C 22.663094 10.001953 23.375906 10.241953 24.003906 11.001953 C 24.759906 10.454953 25.722906 10.001953 27.003906 10.001953 C 28.444906 10.001953 30.834906 12.441953 32.003906 14.001953 C 32.704906 15.788953 33.003906 17.374953 33.003906 19.001953 C 33.003906 20.054953 32.931781 21.066672 32.800781 22.013672 C 33.185781 20.627672 33.528672 19.001953 34.388672 19.001953 C 34.720672 19.001953 35.003906 19.321562 35.003906 19.601562 C 35.003906 21.321562 33.511547 23.600938 32.435547 23.960938 C 30.894547 30.413937 26.573234 34.001953 23.990234 34.001953 C 20.803234 34.001953 14.990234 28.534953 14.990234 19.001953 C 14.990234 18.375953 15.033953 17.761437 15.126953 17.148438 C 15.275953 16.134438 19.739094 10.001953 21.871094 10.001953 z M 28.015625 33.908203 C 28.107625 35.188203 28.355469 36.400312 28.980469 37.320312 C 28.258469 40.400313 25.495672 45.000953 24.013672 45.001953 C 22.524672 45.001953 19.750109 40.374922 19.037109 37.294922 C 19.613109 36.441922 19.836547 35.415937 19.935547 34.335938 C 19.942547 34.241937 19.950078 34.161359 19.955078 34.068359 C 21.336078 35.308359 22.761187 36.001953 23.992188 36.001953 C 25.227187 36.001953 26.643625 35.215203 28.015625 33.908203 z"
          fill="#000000"/>
</svg>