<svg xmlns="http://www.w3.org/2000/svg" width="288" height="288" viewBox="0 0 48 48"><path fill="#000" d="M 25.009766 3.0019531 C 22.902766 3.0019531 20.805766 3.6819531 19.009766 5.0019531 C 15.437766 5.0019531 13.009766 8.1489531 13.009766 13.001953 C 13.009766 14.508953 13.513078 15.588719 14.080078 16.761719 C 14.030078 17.228719 14.003906 17.641953 14.003906 18.001953 C 13.264906 18.001953 13 18.908562 13 19.601562 C 13 21.387562 13.27925 23.706281 14.65625 24.613281 C 14.83425 25.267281 15.069266 25.893547 15.322266 26.560547 C 16.096266 28.613547 16.981672 30.508016 18.013672 32.041016 C 17.969672 33.801016 17.774719 35.121953 17.011719 36.001953 C 15.754719 37.454953 13.067625 37.801953 10.015625 39.001953 C 7.208625 40.108953 4.0136719 41.001953 4.0136719 45.001953 L 4.0136719 47.001953 C 2.9056719 47.001953 0.013671875 47.214141 0.013671875 47.494141 C 0.013671875 47.774141 2.9017656 48.001953 4.0097656 48.001953 L 4.0136719 48 L 4.0136719 48.001953 L 44.001953 48.001953 C 44.003932 48.001953 44.007775 48.001955 44.009766 48.001953 C 45.12212 48.001144 47.996094 47.77364 47.996094 47.494141 C 47.996094 47.215015 45.125364 47.003277 44.009766 47.001953 L 44.009766 45.001953 C 44.009766 41.001953 40.812859 40.108953 38.005859 39.001953 C 34.953859 37.801953 32.266766 37.454953 31.009766 36.001953 C 30.243766 35.121953 30.051813 33.788016 30.007812 32.041016 C 31.035812 30.494016 31.918406 28.613547 32.691406 26.560547 C 32.944406 25.893547 33.176469 25.266281 33.355469 24.613281 C 34.732469 23.707281 35.013672 21.388562 35.013672 19.601562 C 35.013672 18.908562 34.748766 18.001953 34.009766 18.001953 C 34.009766 17.641953 33.981687 17.215047 33.929688 16.748047 C 34.493688 15.588047 34.996094 14.508953 34.996094 13.001953 C 34.996094 7.3219531 29.877766 3.0019531 25.009766 3.0019531 z M 19.007812 10 C 21.097812 10 22.615906 10.519063 24.003906 11.039062 C 24.557906 12.079062 25.262812 13.067 26.007812 14 L 26.005859 11.720703 C 26.127859 11.746703 26.251 11.7725 26.375 11.8125 C 27.015 13.0125 27.970813 14.027 29.007812 15 C 28.611813 14.04 28.234813 13.067 28.007812 12 C 28.508812 12.747 29.188813 13.413 30.007812 14 C 29.682813 13.36 29.409656 12.719406 29.222656 12.066406 C 30.474656 12.239406 31.007812 12.773 31.007812 14 L 31.007812 16 C 31.007812 16.747 32.010813 18.253 32.007812 19 L 31.994141 22 C 32.822141 20.44 32.794672 19.519188 33.138672 18.492188 C 33.246672 18.679188 33.413187 18.839922 33.617188 18.919922 L 33.876953 18.972656 L 33.953125 19.160156 C 33.985125 19.267156 34.011719 19.426609 34.011719 19.599609 C 34.011719 21.479609 33.670734 23.214109 32.802734 23.787109 C 32.600734 23.920109 32.455625 24.120656 32.390625 24.347656 C 32.226625 24.947656 32.008906 25.534844 31.753906 26.214844 C 29.797906 31.387844 27.325859 34.001953 24.005859 34.001953 C 20.685859 34.001953 18.209906 31.387844 16.253906 26.214844 C 15.998906 25.534844 15.781187 24.947656 15.617188 24.347656 C 15.552188 24.120656 15.408078 23.920109 15.205078 23.787109 C 14.337078 23.213109 13.996094 21.479609 13.996094 19.599609 C 13.996094 19.426609 14.021734 19.267156 14.052734 19.160156 L 14.128906 18.972656 L 14.388672 18.919922 C 14.587672 18.839922 14.755281 18.694813 14.863281 18.507812 C 15.205281 19.520812 15.180813 20.44 16.007812 22 L 15.996094 19 C 15.995094 18.253 16.996094 16.747 16.996094 16 L 16.996094 14 C 16.996094 12.507 17.492812 10 19.007812 10 z M 18.945312 33.294922 C 20.361312 34.974922 22.026766 36.001953 24.009766 36.001953 C 25.985766 36.001953 27.644641 34.975594 29.056641 33.308594 C 29.169641 34.441594 29.427281 35.493313 29.988281 36.320312 C 29.266281 39.400312 27.008531 41.001953 24.019531 41.001953 C 21.007531 41.001953 18.757922 39.374922 18.044922 36.294922 C 18.620922 35.441922 18.844359 34.413984 18.943359 33.333984 C 18.943359 33.320984 18.944312 33.307922 18.945312 33.294922 z"/></svg>