<svg xmlns="http://www.w3.org/2000/svg" viewBox="0 0 30 30" width="500px" height="500px">
  <path d="M 6 4 C 4.9069372 4 4 4.9069372 4 6 L 4 24 C 4 25.093063 4.9069372 26 6 26 L 24 26 C 25.093063 26 26 25.093063 26 24 L 26 6 C 26 4.9069372 25.093063 4 24 4 L 6 4 z M 6 6 L 24 6 L 24 24 L 6 24 L 6 6 z M 9 8 C 8.448 8 8 8.448 8 9 L 8 13 C 8 13.552 8.448 14 9 14 L 13 14 C 13.552 14 14 13.552 14 13 L 14 9 C 14 8.448 13.552 8 13 8 L 9 8 z M 17 8 C 16.448 8 16 8.448 16 9 L 16 13 C 16 13.552 16.448 14 17 14 L 21 14 C 21.552 14 22 13.552 22 13 L 22 9 C 22 8.448 21.552 8 21 8 L 17 8 z M 9 16 C 8.448 16 8 16.448 8 17 L 8 21 C 8 21.552 8.448 22 9 22 L 13 22 C 13.552 22 14 21.552 14 21 L 14 17 C 14 16.448 13.552 16 13 16 L 9 16 z M 17 16 C 16.448 16 16 16.448 16 17 L 16 21 C 16 21.552 16.448 22 17 22 L 21 22 C 21.552 22 22 21.552 22 21 L 22 17 C 22 16.448 21.552 16 21 16 L 17 16 z" fill="#000000" />
</svg>