<svg xmlns="http://www.w3.org/2000/svg" viewBox="0 0 24 24" width="384px" height="384px">
  <path d="M 4 4 C 2.895 4 2 4.895 2 6 L 2 16 C 2 17.103 2.897 18 4 18 L 0 18 L 0 20 L 10 20 L 10 17 L 10 16 L 4 16 L 4 6 L 21 6 C 21 4.895 20.105 4 19 4 L 4 4 z M 17 8 C 15.906937 8 15 8.9069372 15 10 L 15 12 L 12 12 L 12 20 C 12 21.093063 12.906937 22 14 22 L 22 22 C 23.093063 22 24 21.093063 24 20 L 24 12 L 21 12 L 21 10 C 21 8.9069372 20.093063 8 19 8 L 17 8 z M 17 10 L 19 10 L 19 12 L 17 12 L 17 10 z M 14 14 L 22 14 L 22 20 L 14 20 L 14 14 z" fill="#FFFFFF" />
</svg>